<mxfile host="app.diagrams.net" agent="Mozilla/5.0 (Windows NT 10.0; Win64; x64; rv:128.0) Gecko/20100101 Firefox/128.0" version="24.7.4">
  <diagram name="Page-1" id="eCt78JA3SsG1lE8SJiND">
    <mxGraphModel dx="1235" dy="679" grid="1" gridSize="10" guides="1" tooltips="1" connect="1" arrows="1" fold="1" page="1" pageScale="1" pageWidth="850" pageHeight="1100" math="0" shadow="0">
      <root>
        <mxCell id="0" />
        <mxCell id="1" parent="0" />
        <mxCell id="GvdpsSFBEIsQT41KNZO9-13" value="" style="edgeStyle=orthogonalEdgeStyle;rounded=0;orthogonalLoop=1;jettySize=auto;html=1;" edge="1" parent="1" source="GvdpsSFBEIsQT41KNZO9-5" target="GvdpsSFBEIsQT41KNZO9-12">
          <mxGeometry relative="1" as="geometry" />
        </mxCell>
        <mxCell id="GvdpsSFBEIsQT41KNZO9-5" value="&lt;div&gt;cat_callback&lt;/div&gt;&lt;div&gt;str: choice is the value selected by catComboBox&lt;br&gt;&lt;/div&gt;" style="strokeWidth=2;html=1;shape=mxgraph.flowchart.terminator;whiteSpace=wrap;" vertex="1" parent="1">
          <mxGeometry x="70" y="40" width="130" height="80" as="geometry" />
        </mxCell>
        <mxCell id="GvdpsSFBEIsQT41KNZO9-6" value="end" style="strokeWidth=2;html=1;shape=mxgraph.flowchart.terminator;whiteSpace=wrap;" vertex="1" parent="1">
          <mxGeometry x="85" y="830" width="100" height="60" as="geometry" />
        </mxCell>
        <mxCell id="GvdpsSFBEIsQT41KNZO9-16" value="" style="edgeStyle=orthogonalEdgeStyle;rounded=0;orthogonalLoop=1;jettySize=auto;html=1;" edge="1" parent="1" source="GvdpsSFBEIsQT41KNZO9-10" target="GvdpsSFBEIsQT41KNZO9-15">
          <mxGeometry relative="1" as="geometry" />
        </mxCell>
        <mxCell id="GvdpsSFBEIsQT41KNZO9-10" value="&lt;div&gt;print choice&lt;br&gt;&lt;/div&gt;" style="shape=parallelogram;perimeter=parallelogramPerimeter;whiteSpace=wrap;html=1;fixedSize=1;strokeWidth=2;" vertex="1" parent="1">
          <mxGeometry x="75" y="230" width="120" height="60" as="geometry" />
        </mxCell>
        <mxCell id="GvdpsSFBEIsQT41KNZO9-14" value="" style="edgeStyle=orthogonalEdgeStyle;rounded=0;orthogonalLoop=1;jettySize=auto;html=1;" edge="1" parent="1" source="GvdpsSFBEIsQT41KNZO9-12" target="GvdpsSFBEIsQT41KNZO9-10">
          <mxGeometry relative="1" as="geometry" />
        </mxCell>
        <mxCell id="GvdpsSFBEIsQT41KNZO9-12" value="&lt;div&gt;set global variables&lt;/div&gt;&lt;div&gt;selectedCat, selectedItem, itemList&lt;br&gt;&lt;/div&gt;" style="whiteSpace=wrap;html=1;strokeWidth=2;" vertex="1" parent="1">
          <mxGeometry x="75" y="140" width="120" height="60" as="geometry" />
        </mxCell>
        <mxCell id="GvdpsSFBEIsQT41KNZO9-22" value="" style="edgeStyle=orthogonalEdgeStyle;rounded=0;orthogonalLoop=1;jettySize=auto;html=1;" edge="1" parent="1" source="GvdpsSFBEIsQT41KNZO9-15" target="GvdpsSFBEIsQT41KNZO9-21">
          <mxGeometry relative="1" as="geometry" />
        </mxCell>
        <mxCell id="GvdpsSFBEIsQT41KNZO9-15" value="set selectedCat to choice" style="whiteSpace=wrap;html=1;strokeWidth=2;" vertex="1" parent="1">
          <mxGeometry x="75" y="330" width="120" height="60" as="geometry" />
        </mxCell>
        <mxCell id="GvdpsSFBEIsQT41KNZO9-24" value="" style="edgeStyle=orthogonalEdgeStyle;rounded=0;orthogonalLoop=1;jettySize=auto;html=1;" edge="1" parent="1" source="GvdpsSFBEIsQT41KNZO9-21" target="GvdpsSFBEIsQT41KNZO9-23">
          <mxGeometry relative="1" as="geometry" />
        </mxCell>
        <mxCell id="GvdpsSFBEIsQT41KNZO9-21" value="set itemList to get_items()" style="shape=process;whiteSpace=wrap;html=1;backgroundOutline=1;strokeWidth=2;" vertex="1" parent="1">
          <mxGeometry x="75" y="420" width="120" height="60" as="geometry" />
        </mxCell>
        <mxCell id="GvdpsSFBEIsQT41KNZO9-26" value="" style="edgeStyle=orthogonalEdgeStyle;rounded=0;orthogonalLoop=1;jettySize=auto;html=1;" edge="1" parent="1" source="GvdpsSFBEIsQT41KNZO9-23" target="GvdpsSFBEIsQT41KNZO9-25">
          <mxGeometry relative="1" as="geometry" />
        </mxCell>
        <mxCell id="GvdpsSFBEIsQT41KNZO9-23" value="create temp list of items in selectedCat" style="whiteSpace=wrap;html=1;strokeWidth=2;" vertex="1" parent="1">
          <mxGeometry x="75" y="520" width="120" height="60" as="geometry" />
        </mxCell>
        <mxCell id="GvdpsSFBEIsQT41KNZO9-30" value="" style="edgeStyle=orthogonalEdgeStyle;rounded=0;orthogonalLoop=1;jettySize=auto;html=1;" edge="1" parent="1" source="GvdpsSFBEIsQT41KNZO9-25" target="GvdpsSFBEIsQT41KNZO9-29">
          <mxGeometry relative="1" as="geometry" />
        </mxCell>
        <mxCell id="GvdpsSFBEIsQT41KNZO9-25" value="set selectedItem to first value in temp list" style="whiteSpace=wrap;html=1;strokeWidth=2;" vertex="1" parent="1">
          <mxGeometry x="75" y="610" width="120" height="60" as="geometry" />
        </mxCell>
        <mxCell id="GvdpsSFBEIsQT41KNZO9-29" value="update_labels()" style="shape=process;whiteSpace=wrap;html=1;backgroundOutline=1;strokeWidth=2;" vertex="1" parent="1">
          <mxGeometry x="75" y="720" width="120" height="60" as="geometry" />
        </mxCell>
        <mxCell id="GvdpsSFBEIsQT41KNZO9-49" value="" style="edgeStyle=orthogonalEdgeStyle;rounded=0;orthogonalLoop=1;jettySize=auto;html=1;" edge="1" parent="1" source="GvdpsSFBEIsQT41KNZO9-50" target="GvdpsSFBEIsQT41KNZO9-55">
          <mxGeometry relative="1" as="geometry" />
        </mxCell>
        <mxCell id="GvdpsSFBEIsQT41KNZO9-50" value="&lt;div&gt;item_callback&lt;/div&gt;&lt;div&gt;str: choice is the value selected by itemComboBox&lt;br&gt;&lt;/div&gt;" style="strokeWidth=2;html=1;shape=mxgraph.flowchart.terminator;whiteSpace=wrap;" vertex="1" parent="1">
          <mxGeometry x="370" y="40" width="130" height="80" as="geometry" />
        </mxCell>
        <mxCell id="GvdpsSFBEIsQT41KNZO9-51" value="end" style="strokeWidth=2;html=1;shape=mxgraph.flowchart.terminator;whiteSpace=wrap;" vertex="1" parent="1">
          <mxGeometry x="385" y="920" width="100" height="60" as="geometry" />
        </mxCell>
        <mxCell id="GvdpsSFBEIsQT41KNZO9-67" value="" style="edgeStyle=orthogonalEdgeStyle;rounded=0;orthogonalLoop=1;jettySize=auto;html=1;" edge="1" parent="1" source="GvdpsSFBEIsQT41KNZO9-53" target="GvdpsSFBEIsQT41KNZO9-66">
          <mxGeometry relative="1" as="geometry" />
        </mxCell>
        <mxCell id="GvdpsSFBEIsQT41KNZO9-53" value="&lt;div&gt;print choice&lt;br&gt;&lt;/div&gt;" style="shape=parallelogram;perimeter=parallelogramPerimeter;whiteSpace=wrap;html=1;fixedSize=1;strokeWidth=2;" vertex="1" parent="1">
          <mxGeometry x="375" y="230" width="120" height="60" as="geometry" />
        </mxCell>
        <mxCell id="GvdpsSFBEIsQT41KNZO9-54" value="" style="edgeStyle=orthogonalEdgeStyle;rounded=0;orthogonalLoop=1;jettySize=auto;html=1;" edge="1" parent="1" source="GvdpsSFBEIsQT41KNZO9-55" target="GvdpsSFBEIsQT41KNZO9-53">
          <mxGeometry relative="1" as="geometry" />
        </mxCell>
        <mxCell id="GvdpsSFBEIsQT41KNZO9-55" value="&lt;div&gt;set global variable selectedItem&lt;br&gt;&lt;/div&gt;" style="whiteSpace=wrap;html=1;strokeWidth=2;" vertex="1" parent="1">
          <mxGeometry x="375" y="140" width="120" height="60" as="geometry" />
        </mxCell>
        <mxCell id="GvdpsSFBEIsQT41KNZO9-69" value="" style="edgeStyle=orthogonalEdgeStyle;rounded=0;orthogonalLoop=1;jettySize=auto;html=1;" edge="1" parent="1" source="GvdpsSFBEIsQT41KNZO9-66" target="GvdpsSFBEIsQT41KNZO9-68">
          <mxGeometry relative="1" as="geometry" />
        </mxCell>
        <mxCell id="GvdpsSFBEIsQT41KNZO9-66" value="sn = 0" style="whiteSpace=wrap;html=1;strokeWidth=2;" vertex="1" parent="1">
          <mxGeometry x="375" y="330" width="120" height="60" as="geometry" />
        </mxCell>
        <mxCell id="GvdpsSFBEIsQT41KNZO9-71" value="yes" style="edgeStyle=orthogonalEdgeStyle;rounded=0;orthogonalLoop=1;jettySize=auto;html=1;" edge="1" parent="1" source="GvdpsSFBEIsQT41KNZO9-68" target="GvdpsSFBEIsQT41KNZO9-70">
          <mxGeometry relative="1" as="geometry" />
        </mxCell>
        <mxCell id="GvdpsSFBEIsQT41KNZO9-81" value="no" style="edgeStyle=orthogonalEdgeStyle;rounded=0;orthogonalLoop=1;jettySize=auto;html=1;exitX=1;exitY=0.5;exitDx=0;exitDy=0;" edge="1" parent="1" source="GvdpsSFBEIsQT41KNZO9-68">
          <mxGeometry relative="1" as="geometry">
            <mxPoint x="435" y="700" as="targetPoint" />
            <mxPoint x="500" y="450" as="sourcePoint" />
            <Array as="points">
              <mxPoint x="570" y="450" />
              <mxPoint x="570" y="700" />
            </Array>
          </mxGeometry>
        </mxCell>
        <mxCell id="GvdpsSFBEIsQT41KNZO9-68" value="&lt;div&gt;is sn in selected&lt;/div&gt;&lt;div&gt;category&lt;br&gt;&lt;/div&gt;" style="rhombus;whiteSpace=wrap;html=1;strokeWidth=2;" vertex="1" parent="1">
          <mxGeometry x="380" y="410" width="110" height="80" as="geometry" />
        </mxCell>
        <mxCell id="GvdpsSFBEIsQT41KNZO9-73" value="yes" style="edgeStyle=orthogonalEdgeStyle;rounded=0;orthogonalLoop=1;jettySize=auto;html=1;" edge="1" parent="1" source="GvdpsSFBEIsQT41KNZO9-70" target="GvdpsSFBEIsQT41KNZO9-72">
          <mxGeometry relative="1" as="geometry" />
        </mxCell>
        <mxCell id="GvdpsSFBEIsQT41KNZO9-84" value="&lt;div&gt;no&lt;/div&gt;" style="edgeStyle=orthogonalEdgeStyle;rounded=0;orthogonalLoop=1;jettySize=auto;html=1;" edge="1" parent="1" source="GvdpsSFBEIsQT41KNZO9-70" target="GvdpsSFBEIsQT41KNZO9-83">
          <mxGeometry relative="1" as="geometry" />
        </mxCell>
        <mxCell id="GvdpsSFBEIsQT41KNZO9-70" value="&lt;div&gt;is name of sn&lt;/div&gt;&lt;div&gt;equal to choice&lt;br&gt;&lt;/div&gt;" style="rhombus;whiteSpace=wrap;html=1;strokeWidth=2;" vertex="1" parent="1">
          <mxGeometry x="380" y="510" width="110" height="80" as="geometry" />
        </mxCell>
        <mxCell id="GvdpsSFBEIsQT41KNZO9-76" value="" style="edgeStyle=orthogonalEdgeStyle;rounded=0;orthogonalLoop=1;jettySize=auto;html=1;" edge="1" parent="1" source="GvdpsSFBEIsQT41KNZO9-72" target="GvdpsSFBEIsQT41KNZO9-75">
          <mxGeometry relative="1" as="geometry" />
        </mxCell>
        <mxCell id="GvdpsSFBEIsQT41KNZO9-72" value="selectedItem = sn" style="whiteSpace=wrap;html=1;strokeWidth=2;" vertex="1" parent="1">
          <mxGeometry x="375" y="620" width="120" height="60" as="geometry" />
        </mxCell>
        <mxCell id="GvdpsSFBEIsQT41KNZO9-78" value="" style="edgeStyle=orthogonalEdgeStyle;rounded=0;orthogonalLoop=1;jettySize=auto;html=1;" edge="1" parent="1" source="GvdpsSFBEIsQT41KNZO9-75" target="GvdpsSFBEIsQT41KNZO9-77">
          <mxGeometry relative="1" as="geometry" />
        </mxCell>
        <mxCell id="GvdpsSFBEIsQT41KNZO9-75" value="print selectedItem" style="shape=parallelogram;perimeter=parallelogramPerimeter;whiteSpace=wrap;html=1;fixedSize=1;strokeWidth=2;" vertex="1" parent="1">
          <mxGeometry x="375" y="720" width="120" height="60" as="geometry" />
        </mxCell>
        <mxCell id="GvdpsSFBEIsQT41KNZO9-86" value="" style="edgeStyle=orthogonalEdgeStyle;rounded=0;orthogonalLoop=1;jettySize=auto;html=1;" edge="1" parent="1" source="GvdpsSFBEIsQT41KNZO9-77" target="GvdpsSFBEIsQT41KNZO9-51">
          <mxGeometry relative="1" as="geometry" />
        </mxCell>
        <mxCell id="GvdpsSFBEIsQT41KNZO9-77" value="update_labels()" style="shape=process;whiteSpace=wrap;html=1;backgroundOutline=1;strokeWidth=2;" vertex="1" parent="1">
          <mxGeometry x="375" y="810" width="120" height="60" as="geometry" />
        </mxCell>
        <mxCell id="GvdpsSFBEIsQT41KNZO9-85" style="edgeStyle=orthogonalEdgeStyle;rounded=0;orthogonalLoop=1;jettySize=auto;html=1;entryX=0;entryY=0.5;entryDx=0;entryDy=0;" edge="1" parent="1" source="GvdpsSFBEIsQT41KNZO9-83" target="GvdpsSFBEIsQT41KNZO9-68">
          <mxGeometry relative="1" as="geometry">
            <mxPoint x="350" y="450" as="targetPoint" />
            <Array as="points">
              <mxPoint x="280" y="450" />
            </Array>
          </mxGeometry>
        </mxCell>
        <mxCell id="GvdpsSFBEIsQT41KNZO9-83" value="increment sn by 1" style="whiteSpace=wrap;html=1;strokeWidth=2;" vertex="1" parent="1">
          <mxGeometry x="220" y="520" width="120" height="60" as="geometry" />
        </mxCell>
        <mxCell id="GvdpsSFBEIsQT41KNZO9-89" value="" style="edgeStyle=orthogonalEdgeStyle;rounded=0;orthogonalLoop=1;jettySize=auto;html=1;" edge="1" parent="1" source="GvdpsSFBEIsQT41KNZO9-87" target="GvdpsSFBEIsQT41KNZO9-88">
          <mxGeometry relative="1" as="geometry" />
        </mxCell>
        <mxCell id="GvdpsSFBEIsQT41KNZO9-87" value="get_items" style="strokeWidth=2;html=1;shape=mxgraph.flowchart.terminator;whiteSpace=wrap;" vertex="1" parent="1">
          <mxGeometry x="780" y="40" width="100" height="60" as="geometry" />
        </mxCell>
        <mxCell id="GvdpsSFBEIsQT41KNZO9-91" value="" style="edgeStyle=orthogonalEdgeStyle;rounded=0;orthogonalLoop=1;jettySize=auto;html=1;" edge="1" parent="1" source="GvdpsSFBEIsQT41KNZO9-88" target="GvdpsSFBEIsQT41KNZO9-90">
          <mxGeometry relative="1" as="geometry" />
        </mxCell>
        <mxCell id="GvdpsSFBEIsQT41KNZO9-88" value="sn = 0" style="whiteSpace=wrap;html=1;strokeWidth=2;" vertex="1" parent="1">
          <mxGeometry x="770" y="130" width="120" height="60" as="geometry" />
        </mxCell>
        <mxCell id="GvdpsSFBEIsQT41KNZO9-93" value="yes" style="edgeStyle=orthogonalEdgeStyle;rounded=0;orthogonalLoop=1;jettySize=auto;html=1;" edge="1" parent="1" source="GvdpsSFBEIsQT41KNZO9-90" target="GvdpsSFBEIsQT41KNZO9-92">
          <mxGeometry relative="1" as="geometry" />
        </mxCell>
        <mxCell id="GvdpsSFBEIsQT41KNZO9-101" value="" style="edgeStyle=orthogonalEdgeStyle;rounded=0;orthogonalLoop=1;jettySize=auto;html=1;" edge="1" parent="1" source="GvdpsSFBEIsQT41KNZO9-90" target="GvdpsSFBEIsQT41KNZO9-100">
          <mxGeometry relative="1" as="geometry" />
        </mxCell>
        <mxCell id="GvdpsSFBEIsQT41KNZO9-90" value="is sn in selected category" style="rhombus;whiteSpace=wrap;html=1;strokeWidth=2;" vertex="1" parent="1">
          <mxGeometry x="770" y="220" width="120" height="80" as="geometry" />
        </mxCell>
        <mxCell id="GvdpsSFBEIsQT41KNZO9-97" value="" style="edgeStyle=orthogonalEdgeStyle;rounded=0;orthogonalLoop=1;jettySize=auto;html=1;" edge="1" parent="1" source="GvdpsSFBEIsQT41KNZO9-92" target="GvdpsSFBEIsQT41KNZO9-96">
          <mxGeometry relative="1" as="geometry" />
        </mxCell>
        <mxCell id="GvdpsSFBEIsQT41KNZO9-92" value="append name of sn to a temp list" style="whiteSpace=wrap;html=1;strokeWidth=2;" vertex="1" parent="1">
          <mxGeometry x="770" y="340" width="120" height="60" as="geometry" />
        </mxCell>
        <mxCell id="GvdpsSFBEIsQT41KNZO9-98" style="edgeStyle=orthogonalEdgeStyle;rounded=0;orthogonalLoop=1;jettySize=auto;html=1;" edge="1" parent="1" source="GvdpsSFBEIsQT41KNZO9-96">
          <mxGeometry relative="1" as="geometry">
            <mxPoint x="830" y="210" as="targetPoint" />
            <Array as="points">
              <mxPoint x="1030" y="210" />
              <mxPoint x="930" y="210" />
            </Array>
          </mxGeometry>
        </mxCell>
        <mxCell id="GvdpsSFBEIsQT41KNZO9-96" value="increment sn by 1" style="whiteSpace=wrap;html=1;strokeWidth=2;" vertex="1" parent="1">
          <mxGeometry x="970" y="340" width="120" height="60" as="geometry" />
        </mxCell>
        <mxCell id="GvdpsSFBEIsQT41KNZO9-100" value="retrun the temp list" style="strokeWidth=2;html=1;shape=mxgraph.flowchart.terminator;whiteSpace=wrap;" vertex="1" parent="1">
          <mxGeometry x="600" y="230" width="100" height="60" as="geometry" />
        </mxCell>
      </root>
    </mxGraphModel>
  </diagram>
</mxfile>
